<?xml version="1.0" standalone="no"?>
<!DOCTYPE svg PUBLIC "-//W3C//DTD SVG 1.1//EN"
  "http://www.w3.org/Graphics/SVG/1.1/DTD/svg11.dtd">
<svg width="52mm" height="45.999999999999986mm" viewBox="-338 -30.999999999999993 52 45.999999999999986" xmlns="http://www.w3.org/2000/svg" version="1.1">
	<title>svgOutput</title>
	<desc>made with tinkercad</desc>
<path d="M -291.68389892578125 -29.999999999999993 L -287 -25.315423965454094 L -287 -19.31057548522949 L -287 -1.9999999999999996 L -287 8.003000259399412 L -287 13.999999999999996 L -320.3058776855469 13.999999999999996 L -322.50201416015625 13.999999999999996 L -328.00299072265625 13.999999999999996 L -337 13.999999999999996 L -337 2.406495094299316 L -337 -25.315423965454094 L -332.31610107421875 -29.999999999999993 L -328.00299072265625 -29.999999999999993 L -322.50201416015625 -29.999999999999993 L -304.59808349609375 -29.999999999999993 L -301.4989929199219 -29.999999999999993 L -295.99798583984375 -29.999999999999993 L -291.68389892578125 -29.999999999999993 M -319.8590087890625 7.41200017929077 L -319.4880065917969 7.587472915649412 L -319.4150085449219 7.622000217437742 L -318.9530029296875 7.788000106811522 L -318.47698974609375 7.907000064849852 L -317.9909973144531 7.979000091552733 L -317.5010070800781 8.003000259399412 L -317.010986328125 7.979000091552733 L -316.5260009765625 7.907000064849852 L -316.04998779296875 7.788000106811522 L -315.5880126953125 7.622000217437742 L -315.3919982910156 7.529297351837156 L -315.1440124511719 7.41200017929077 L -314.7229919433594 7.159999847412108 L -314.3290100097656 6.868000030517576 L -313.9649963378906 6.538000106811522 L -313.635986328125 6.173999786376951 L -313.3429870605469 5.780000209808349 L -313.09100341796875 5.3590002059936515 L -312.8810119628906 4.915999889373778 L -312.71600341796875 4.45300006866455 L -312.6267395019531 4.09600019454956 L -312.59698486328125 3.9769999980926505 L -312.5249938964844 3.4920001029968253 L -312.5 3.002000093460082 L -312.5249938964844 2.5109999179840083 L -312.59698486328125 2.026000022888183 L -312.71600341796875 1.5499999523162837 L -312.8810119628906 1.0880000591278076 L -313.09100341796875 0.6439999938011169 L -313.3429870605469 0.22300000488758093 L -313.50885009765625 1.1102230246251565e-16 L -313.635986328125 -0.17100000381469713 L -313.9649963378906 -0.5350000262260435 L -314.3290100097656 -0.8640000224113461 L -314.7229919433594 -1.1569999456405635 L -315.1440124511719 -1.4090000391006465 L -315.5880126953125 -1.6189999580383296 L -316.04998779296875 -1.7840000391006465 L -316.5260009765625 -1.9029999971389766 L -317.010986328125 -1.9750000238418575 L -317.5010070800781 -1.9999999999999996 L -317.9909973144531 -1.9750000238418575 L -318.47698974609375 -1.9029999971389766 L -318.9530029296875 -1.7840000391006465 L -319.4150085449219 -1.6189999580383296 L -319.4880065917969 -1.5844730138778682 L -319.8590087890625 -1.4090000391006465 L -320.27899169921875 -1.1569999456405635 L -320.67401123046875 -0.8640000224113461 L -321.0369873046875 -0.5350000262260435 L -321.36700439453125 -0.17100000381469713 L -321.4937438964844 1.1102230246251565e-16 L -321.65899658203125 0.22300000488758093 L -321.9119873046875 0.6439999938011169 L -322.1210021972656 1.0880000591278076 L -322.2869873046875 1.5499999523162837 L -322.406005859375 2.026000022888183 L -322.4779968261719 2.5109999179840083 L -322.50201416015625 3.002000093460082 L -322.4779968261719 3.4920001029968253 L -322.406005859375 3.9769999980926505 L -322.3762512207031 4.09600019454956 L -322.2869873046875 4.45300006866455 L -322.1210021972656 4.915999889373778 L -321.9119873046875 5.3590002059936515 L -321.65899658203125 5.780000209808349 L -321.36700439453125 6.173999786376951 L -321.0369873046875 6.538000106811522 L -320.67401123046875 6.868000030517576 L -320.27899169921875 7.159999847412108 L -319.8590087890625 7.41200017929077 M -319.8299865722656 -3.134999990463256 L -319.4880065917969 -3.44411540031433 L -319.46600341796875 -3.4639999866485587 L -319.135986328125 -3.82800006866455 L -318.843994140625 -4.222000122070312 L -318.5920104980469 -4.643000125885009 L -318.3819885253906 -5.086999893188476 L -318.2170104980469 -5.548999786376952 L -318.09698486328125 -6.02500009536743 L -318.0249938964844 -6.511000156402586 L -318.0010070800781 -7.00099992752075 L -318.0249938964844 -7.491000175476072 L -318.09698486328125 -7.977000236511229 L -318.1512145996094 -8.19200038909912 L -318.2170104980469 -8.453000068664549 L -318.3819885253906 -8.914999961853026 L -318.5920104980469 -9.35799980163574 L -318.843994140625 -9.779000282287596 L -319.135986328125 -10.173999786376951 L -319.46600341796875 -10.536999702453612 L -319.4880065917969 -10.556944847106932 L -319.8299865722656 -10.866999626159666 L -320.2239990234375 -11.159000396728514 L -320.6449890136719 -11.411999702453612 L -321.0880126953125 -11.62100028991699 L -321.54998779296875 -11.786999702453612 L -322.0260009765625 -11.9060001373291 L -322.50201416015625 -11.976518630981444 L -322.5119934082031 -11.977999687194822 L -322.61260986328125 -11.98292827606201 L -323.00201416015625 -12.0019998550415 L -323.49200439453125 -11.977999687194822 L -323.5840148925781 -11.96437072753906 L -323.9779968261719 -11.9060001373291 L -324.4540100097656 -11.786999702453612 L -324.9159851074219 -11.62100028991699 L -325.3590087890625 -11.411999702453612 L -325.7799987792969 -11.159000396728514 L -326.17498779296875 -10.866999626159666 L -326.5379943847656 -10.536999702453612 L -326.8680114746094 -10.173999786376951 L -327.1600036621094 -9.779000282287596 L -327.4119873046875 -9.35799980163574 L -327.62200927734375 -8.914999961853026 L -327.67999267578125 -8.753578186035154 L -327.7879943847656 -8.453000068664549 L -327.8532409667969 -8.19200038909912 L -327.9070129394531 -7.977000236511229 L -327.97900390625 -7.491000175476072 L -328.00299072265625 -7.00099992752075 L -327.98388671875 -6.6108875274658185 L -327.97900390625 -6.511000156402586 L -327.9070129394531 -6.02500009536743 L -327.7879943847656 -5.548999786376952 L -327.67999267578125 -5.248421669006347 L -327.62200927734375 -5.086999893188476 L -327.4119873046875 -4.643000125885009 L -327.1600036621094 -4.222000122070312 L -326.8680114746094 -3.82800006866455 L -326.5379943847656 -3.4639999866485587 L -326.17498779296875 -3.134999990463256 L -325.7799987792969 -2.842000007629394 L -325.3590087890625 -2.589999914169311 L -324.9159851074219 -2.3800001144409175 L -324.4540100097656 -2.214999914169311 L -323.9779968261719 -2.095999956130981 L -323.5840148925781 -2.037629604339599 L -323.49200439453125 -2.0239999294281 L -323.00201416015625 -1.9999999999999996 L -322.5119934082031 -2.0239999294281 L -322.50201416015625 -2.0254814624786373 L -322.0260009765625 -2.095999956130981 L -321.54998779296875 -2.214999914169311 L -321.0880126953125 -2.3800001144409175 L -320.6449890136719 -2.589999914169311 L -320.2239990234375 -2.842000007629394 L -319.8299865722656 -3.134999990463256 M -312.97601318359375 -2.095999956130981 L -312.5 -2.0253360271453853 L -312.4909973144531 -2.0239999294281 L -312 -1.9999999999999996 L -311.510009765625 -2.0239999294281 L -311.5 -2.0254845619201656 L -311.2959899902344 -2.0557689666748042 L -311.0249938964844 -2.095999956130981 L -310.54901123046875 -2.214999914169311 L -310.0870056152344 -2.3800001144409175 L -309.64300537109375 -2.589999914169311 L -309.22198486328125 -2.842000007629394 L -308.8280029296875 -3.134999990463256 L -308.4639892578125 -3.4639999866485587 L -308.135009765625 -3.82800006866455 L -307.9356994628906 -4.09600019454956 L -307.8420104980469 -4.222000122070312 L -307.5899963378906 -4.643000125885009 L -307.3800048828125 -5.086999893188476 L -307.2149963378906 -5.548999786376952 L -307.09600830078125 -6.02500009536743 L -307.02398681640625 -6.511000156402586 L -307 -7.00099992752075 L -307.02398681640625 -7.491000175476072 L -307.09600830078125 -7.977000236511229 L -307.1497497558594 -8.19200038909912 L -307.2149963378906 -8.453000068664549 L -307.3800048828125 -8.914999961853026 L -307.5899963378906 -9.35799980163574 L -307.8420104980469 -9.779000282287596 L -308.135009765625 -10.173999786376951 L -308.4639892578125 -10.536999702453612 L -308.8280029296875 -10.866999626159666 L -309.22198486328125 -11.159000396728514 L -309.64300537109375 -11.411999702453612 L -310.0870056152344 -11.62100028991699 L -310.54901123046875 -11.786999702453612 L -311.0249938964844 -11.9060001373291 L -311.2959899902344 -11.946230888366697 L -311.5 -11.976515769958494 L -311.510009765625 -11.977999687194822 L -312 -12.0019998550415 L -312.4909973144531 -11.977999687194822 L -312.5 -11.976663589477537 L -312.97601318359375 -11.9060001373291 L -313.4519958496094 -11.786999702453612 L -313.91400146484375 -11.62100028991699 L -314.3580017089844 -11.411999702453612 L -314.77899169921875 -11.159000396728514 L -315.1730041503906 -10.866999626159666 L -315.3919982910156 -10.667908668518065 L -315.5360107421875 -10.536999702453612 L -315.8659973144531 -10.173999786376951 L -316.1579895019531 -9.779000282287596 L -316.4110107421875 -9.35799980163574 L -316.6199951171875 -8.914999961853026 L -316.7860107421875 -8.453000068664549 L -316.85125732421875 -8.19200038909912 L -316.9049987792969 -7.977000236511229 L -316.97698974609375 -7.491000175476072 L -317.0010070800781 -7.00099992752075 L -316.97698974609375 -6.511000156402586 L -316.9049987792969 -6.02500009536743 L -316.7860107421875 -5.548999786376952 L -316.6199951171875 -5.086999893188476 L -316.4110107421875 -4.643000125885009 L -316.1579895019531 -4.222000122070312 L -316.0646057128906 -4.09600019454956 L -315.8659973144531 -3.82800006866455 L -315.5360107421875 -3.4639999866485587 L -315.1730041503906 -3.134999990463256 L -314.77899169921875 -2.842000007629394 L -314.3580017089844 -2.589999914169311 L -313.91400146484375 -2.3800001144409175 L -313.4519958496094 -2.214999914169311 L -312.97601318359375 -2.095999956130981 M -311.47601318359375 2.5109999179840083 L -311.5 3.002000093460082 L -311.47601318359375 3.4920001029968253 L -311.40399169921875 3.9769999980926505 L -311.2959899902344 4.4089999198913565 L -311.2850036621094 4.45300006866455 L -311.1470947265625 4.839943408966064 L -311.1199951171875 4.915999889373778 L -310.9100036621094 5.3590002059936515 L -310.6570129394531 5.780000209808349 L -310.364990234375 6.173999786376951 L -310.0360107421875 6.538000106811522 L -309.6719970703125 6.868000030517576 L -309.27801513671875 7.159999847412108 L -308.85699462890625 7.41200017929077 L -308.4129943847656 7.622000217437742 L -307.95098876953125 7.788000106811522 L -307.4750061035156 7.907000064849852 L -307.20001220703125 7.9478249549865705 L -306.989990234375 7.979000091552733 L -306.4989929199219 8.003000259399412 L -306.0090026855469 7.979000091552733 L -305.52398681640625 7.907000064849852 L -305.0480041503906 7.788000106811522 L -304.58599853515625 7.622000217437742 L -304.1419982910156 7.41200017929077 L -303.72100830078125 7.159999847412108 L -303.3269958496094 6.868000030517576 L -303.10400390625 6.665829658508299 L -302.9630126953125 6.538000106811522 L -302.6340026855469 6.173999786376951 L -302.3420104980469 5.780000209808349 L -302.0889892578125 5.3590002059936515 L -301.8789978027344 4.915999889373778 L -301.7139892578125 4.45300006866455 L -301.624755859375 4.09600019454956 L -301.5950012207031 3.9769999980926505 L -301.52301025390625 3.4920001029968253 L -301.4989929199219 3.002000093460082 L -301.52301025390625 2.5109999179840083 L -301.5950012207031 2.026000022888183 L -301.7139892578125 1.5499999523162837 L -301.8789978027344 1.0880000591278076 L -302.0889892578125 0.6439999938011169 L -302.3420104980469 0.22300000488758093 L -302.50726318359375 1.1102230246251565e-16 L -302.6340026855469 -0.17100000381469713 L -302.9630126953125 -0.5350000262260435 L -303.10400390625 -0.6624423265457151 L -303.3269958496094 -0.8640000224113461 L -303.72100830078125 -1.1569999456405635 L -304.1419982910156 -1.4090000391006465 L -304.58599853515625 -1.6189999580383296 L -304.6619567871094 -1.6461257934570308 L -305.0480041503906 -1.7840000391006465 L -305.52398681640625 -1.9029999971389766 L -306.0090026855469 -1.9750000238418575 L -306.4989929199219 -1.9999999999999996 L -306.989990234375 -1.9750000238418575 L -307.20001220703125 -1.9438247680664058 L -307.4750061035156 -1.9029999971389766 L -307.95098876953125 -1.7840000391006465 L -308.4129943847656 -1.6189999580383296 L -308.85699462890625 -1.4090000391006465 L -309.27801513671875 -1.1569999456405635 L -309.6719970703125 -0.8640000224113461 L -310.0360107421875 -0.5350000262260435 L -310.364990234375 -0.17100000381469713 L -310.4917297363281 1.1102230246251565e-16 L -310.6570129394531 0.22300000488758093 L -310.9100036621094 0.6439999938011169 L -311.1199951171875 1.0880000591278076 L -311.2850036621094 1.5499999523162837 L -311.2959899902344 1.5939999818801875 L -311.40399169921875 2.026000022888183 L -311.47601318359375 2.5109999179840083 M -303.5826110839844 -2.7256345748901363 L -303.3559875488281 -2.589999914169311 L -303.10400390625 -2.4708108901977535 L -302.9119873046875 -2.3800001144409175 L -302.45001220703125 -2.214999914169311 L -301.9739990234375 -2.095999956130981 L -301.4989929199219 -2.0254845619201656 L -301.489013671875 -2.0239999294281 L -300.9989929199219 -1.9999999999999996 L -300.50799560546875 -2.0239999294281 L -300.02301025390625 -2.095999956130981 L -299.5469970703125 -2.214999914169311 L -299.0849914550781 -2.3800001144409175 L -299.00799560546875 -2.4164190292358394 L -298.6409912109375 -2.589999914169311 L -298.2200012207031 -2.842000007629394 L -297.82598876953125 -3.134999990463256 L -297.4630126953125 -3.4639999866485587 L -297.13299560546875 -3.82800006866455 L -296.93438720703125 -4.09600019454956 L -296.84100341796875 -4.222000122070312 L -296.5880126953125 -4.643000125885009 L -296.3789978027344 -5.086999893188476 L -296.2130126953125 -5.548999786376952 L -296.093994140625 -6.02500009536743 L -296.0220031738281 -6.511000156402586 L -295.99798583984375 -7.00099992752075 L -296.0220031738281 -7.491000175476072 L -296.093994140625 -7.977000236511229 L -296.1477355957031 -8.19200038909912 L -296.2130126953125 -8.453000068664549 L -296.3789978027344 -8.914999961853026 L -296.5880126953125 -9.35799980163574 L -296.7243347167969 -9.584865570068358 L -296.84100341796875 -9.779000282287596 L -297.13299560546875 -10.173999786376951 L -297.4630126953125 -10.536999702453612 L -297.82598876953125 -10.866999626159666 L -298.2200012207031 -11.159000396728514 L -298.6409912109375 -11.411999702453612 L -299.00799560546875 -11.584754943847654 L -299.0849914550781 -11.62100028991699 L -299.5469970703125 -11.786999702453612 L -300.02301025390625 -11.9060001373291 L -300.50799560546875 -11.977999687194822 L -300.9989929199219 -12.0019998550415 L -301.489013671875 -11.977999687194822 L -301.4989929199219 -11.976515769958494 L -301.9739990234375 -11.9060001373291 L -302.45001220703125 -11.786999702453612 L -302.9119873046875 -11.62100028991699 L -303.10400390625 -11.530621528625487 L -303.3559875488281 -11.411999702453612 L -303.7770080566406 -11.159000396728514 L -304.1709899902344 -10.866999626159666 L -304.5350036621094 -10.536999702453612 L -304.864013671875 -10.173999786376951 L -305.1570129394531 -9.779000282287596 L -305.40899658203125 -9.35799980163574 L -305.6189880371094 -8.914999961853026 L -305.78399658203125 -8.453000068664549 L -305.8492431640625 -8.19200038909912 L -305.90301513671875 -7.977000236511229 L -305.9750061035156 -7.491000175476072 L -305.9989929199219 -7.00099992752075 L -305.9750061035156 -6.511000156402586 L -305.90301513671875 -6.02500009536743 L -305.78399658203125 -5.548999786376952 L -305.6189880371094 -5.086999893188476 L -305.40899658203125 -4.643000125885009 L -305.1570129394531 -4.222000122070312 L -305.06329345703125 -4.09600019454956 L -304.864013671875 -3.82800006866455 L -304.5350036621094 -3.4639999866485587 L -304.1709899902344 -3.134999990463256 L -303.7770080566406 -2.842000007629394 L -303.5826110839844 -2.7256345748901363 z" fill="none" stroke="rgb(255,0,0)" stroke-width="0.001mm" />
</svg>