<?xml version="1.0" standalone="no"?>
<!DOCTYPE svg PUBLIC "-//W3C//DTD SVG 1.1//EN"
  "http://www.w3.org/Graphics/SVG/1.1/DTD/svg11.dtd">
<svg width="45.56047058105469mm" height="19.09900093078613mm" viewBox="-282.000244140625 -18.59900093078613 45.56047058105469 19.09900093078613" xmlns="http://www.w3.org/2000/svg" version="1.1">
	<title>svgOutput</title>
	<desc>made with tinkercad</desc>
<path d="M -237.5959930419922 -1.1399999856948848 L -237.4397735595703 -0.4999999999999998 L -256.2179870605469 -0.4999999999999998 L -262.1440124511719 -0.4999999999999998 L -262.2229919433594 -0.4999999999999998 L -281.000244140625 -0.4999999999999998 L -280.843994140625 -1.1399999856948848 L -280.09698486328125 -3.2829999923706046 L -279.14898681640625 -5.34000015258789 L -278.0090026855469 -7.2919998168945295 L -276.68798828125 -9.11999988555908 L -275.1990051269531 -10.805999755859373 L -273.55499267578125 -12.335000038146969 L -271.77398681640625 -13.690999984741207 L -269.87200927734375 -14.861000061035153 L -267.8680114746094 -15.833999633789059 L -265.7799987792969 -16.600000381469723 L -263.6289978027344 -17.152999877929684 L -262.2229919433594 -17.36704063415527 L -262.1440124511719 -17.379066467285153 L -261.43499755859375 -17.486999511718746 L -259.2200012207031 -17.59900093078613 L -257.0050048828125 -17.486999511718746 L -256.2179870605469 -17.367137908935543 L -254.81199645996094 -17.152999877929684 L -252.66099548339844 -16.600000381469723 L -250.572998046875 -15.833999633789059 L -248.5679931640625 -14.861000061035153 L -246.66600036621094 -13.690999984741207 L -244.88499450683594 -12.335000038146969 L -243.24200439453125 -10.805999755859373 L -241.7530059814453 -9.11999988555908 L -240.4320068359375 -7.2919998168945295 L -239.29100036621094 -5.34000015258789 L -238.34300231933594 -3.2829999923706046 L -237.5959930419922 -1.1399999856948848 M -256.2179870605469 -16.01399993896484 L -262.1440124511719 -16.01399993896484 L -262.2229919433594 -16.01399993896484 L -262.2229919433594 -7.008999824523924 L -262.1440124511719 -7.008999824523924 L -256.2179870605469 -7.008999824523924 L -256.2179870605469 -16.01399993896484 z" fill="none" stroke="rgb(255,0,0)" stroke-width="0.001mm" />
</svg>