999
"DXF R12 Output" (www.mydxf.blogspot.com)
 0 
SECTION
 2 
HEADER
 9 
$ACADVER
 1 
AC1009
 9 
$EXTMIN
 10 
 0 
 20 
 0 
 9 
$EXTMAX
 10 
 8.5 
 20 
 11 
 0 
ENDSEC
 0 
SECTION
 2 
ENTITIES
0
POLYLINE
8
Layer 1
62
10
70
0
10
0.000000
20
0.000000
66
1
0
VERTEX
8
Layer 1
10
15.423491
20
13.718087
70
0
0
VERTEX
8
Layer 1
10
17.084743
20
13.802087
70
0
0
VERTEX
8
Layer 1
10
18.745996
20
13.718087
70
0
0
VERTEX
8
Layer 1
10
20.390748
20
13.467587
70
0
0
VERTEX
8
Layer 1
10
22.004750
20
13.052836
70
0
0
VERTEX
8
Layer 1
10
23.570002
20
12.478335
70
0
0
VERTEX
8
Layer 1
10
25.073754
20
11.748584
70
0
0
VERTEX
8
Layer 1
10
26.500256
20
10.871083
70
0
0
VERTEX
8
Layer 1
10
27.836008
20
9.854082
70
0
0
VERTEX
8
Layer 1
10
29.068259
20
8.707330
70
0
0
VERTEX
8
Layer 1
10
29.171760
20
8.590330
70
0
0
VERTEX
8
Layer 1
10
30.185761
20
7.442828
70
0
0
VERTEX
8
Layer 1
10
31.176512
20
6.071827
70
0
0
VERTEX
8
Layer 1
10
32.031513
20
4.607825
70
0
0
VERTEX
8
Layer 1
10
32.742514
20
3.065073
70
0
0
VERTEX
8
Layer 1
10
33.302765
20
1.457820
70
0
0
VERTEX
8
Layer 1
10
33.419765
20
0.977820
70
0
0
VERTEX
8
Layer 1
10
0.749722
20
0.977820
70
0
0
VERTEX
8
Layer 1
10
0.866722
20
1.457820
70
0
0
VERTEX
8
Layer 1
10
1.426973
20
3.065073
70
0
0
VERTEX
8
Layer 1
10
2.137974
20
4.607825
70
0
0
VERTEX
8
Layer 1
10
2.992975
20
6.071827
70
0
0
VERTEX
8
Layer 1
10
3.983726
20
7.442828
70
0
0
VERTEX
8
Layer 1
10
4.997727
20
8.590330
70
0
0
VERTEX
8
Layer 1
10
5.101227
20
8.707330
70
0
0
VERTEX
8
Layer 1
10
6.333479
20
9.854082
70
0
0
VERTEX
8
Layer 1
10
7.669231
20
10.871083
70
0
0
VERTEX
8
Layer 1
10
9.095733
20
11.748584
70
0
0
VERTEX
8
Layer 1
10
10.598735
20
12.478335
70
0
0
VERTEX
8
Layer 1
10
12.164737
20
13.052836
70
0
0
VERTEX
8
Layer 1
10
12.896738
20
13.241086
70
0
0
VERTEX
8
Layer 1
10
13.778739
20
13.467587
70
0
0
VERTEX
8
Layer 1
10
15.423491
20
13.718087
70
0
0
SEQEND
8
Layer 1
0
POLYLINE
8
Layer 1
62
10
70
1
10
0.000000
20
0.000000
66
1
0
VERTEX
8
Layer 1
10
14.832490
20
12.613335
70
0
0
VERTEX
8
Layer 1
10
14.832490
20
5.859576
70
0
0
VERTEX
8
Layer 1
10
19.336246
20
5.859576
70
0
0
VERTEX
8
Layer 1
10
19.336246
20
12.613335
70
0
0
VERTEX
8
Layer 1
10
14.832490
20
12.613335
70
0
0
VERTEX
8
Layer 1
10
14.832490
20
12.613335
70
0
0
SEQEND
8
Layer 1
 0 
ENDSEC
 0 
EOF