<?xml version="1.0" encoding="UTF-8" standalone="no"?>
<!DOCTYPE svg PUBLIC "-//W3C//DTD SVG 1.1//EN" "http://www.w3.org/Graphics/SVG/1.1/DTD/svg11.dtd">
<svg width="100%" height="100%" viewBox="0 0 148 131" version="1.1" xmlns="http://www.w3.org/2000/svg" xmlns:xlink="http://www.w3.org/1999/xlink" xml:space="preserve" xmlns:serif="http://www.serif.com/" style="fill-rule:evenodd;clip-rule:evenodd;">
    <g transform="matrix(2.83465,0,0,2.83465,958.11,87.874)">
        <path d="M-291.684,-30L-287,-25.315L-287,14L-337,14L-337,-25.315L-332.316,-30L-291.684,-30M-319.859,7.412L-319.415,7.622L-318.953,7.788L-318.477,7.907L-317.991,7.979L-317.501,8.003L-317.011,7.979L-316.526,7.907L-316.05,7.788L-315.588,7.622L-315.392,7.529L-315.144,7.412L-314.723,7.16L-314.329,6.868L-313.965,6.538L-313.636,6.174L-313.343,5.78L-313.091,5.359L-312.881,4.916L-312.716,4.453L-312.597,3.977L-312.525,3.492L-312.5,3.002L-312.525,2.511L-312.597,2.026L-312.716,1.55L-312.881,1.088L-313.091,0.644L-313.343,0.223L-313.509,0L-313.636,-0.171L-313.965,-0.535L-314.329,-0.864L-314.723,-1.157L-315.144,-1.409L-315.588,-1.619L-316.05,-1.784L-316.526,-1.903L-317.011,-1.975L-317.501,-2L-317.991,-1.975L-318.477,-1.903L-318.953,-1.784L-319.415,-1.619L-319.859,-1.409L-320.279,-1.157L-320.674,-0.864L-321.037,-0.535L-321.367,-0.171L-321.494,0L-321.659,0.223L-321.912,0.644L-322.121,1.088L-322.287,1.55L-322.406,2.026L-322.478,2.511L-322.502,3.002L-322.478,3.492L-322.406,3.977L-322.287,4.453L-322.121,4.916L-321.912,5.359L-321.659,5.78L-321.367,6.174L-321.037,6.538L-320.674,6.868L-320.279,7.16L-319.859,7.412M-319.83,-3.135L-319.466,-3.464L-319.136,-3.828L-318.844,-4.222L-318.592,-4.643L-318.382,-5.087L-318.217,-5.549L-318.097,-6.025L-318.025,-6.511L-318.001,-7.001L-318.025,-7.491L-318.097,-7.977L-318.151,-8.192L-318.217,-8.453L-318.382,-8.915L-318.592,-9.358L-318.844,-9.779L-319.136,-10.174L-319.466,-10.537L-319.83,-10.867L-320.224,-11.159L-320.645,-11.412L-321.088,-11.621L-321.55,-11.787L-322.026,-11.906L-322.512,-11.978L-323.002,-12.002L-323.492,-11.978L-323.978,-11.906L-324.454,-11.787L-324.916,-11.621L-325.359,-11.412L-325.78,-11.159L-326.175,-10.867L-326.538,-10.537L-326.868,-10.174L-327.16,-9.779L-327.412,-9.358L-327.622,-8.915L-327.68,-8.754L-327.788,-8.453L-327.853,-8.192L-327.907,-7.977L-327.979,-7.491L-328.003,-7.001L-327.984,-6.611L-327.979,-6.511L-327.907,-6.025L-327.788,-5.549L-327.68,-5.248L-327.622,-5.087L-327.412,-4.643L-327.16,-4.222L-326.868,-3.828L-326.538,-3.464L-326.175,-3.135L-325.78,-2.842L-325.359,-2.59L-324.916,-2.38L-324.454,-2.215L-323.978,-2.096L-323.492,-2.024L-323.002,-2L-322.512,-2.024L-322.026,-2.096L-321.55,-2.215L-321.088,-2.38L-320.645,-2.59L-320.224,-2.842L-319.83,-3.135M-312.976,-2.096L-312.491,-2.024L-312,-2L-311.51,-2.024L-311.025,-2.096L-310.549,-2.215L-310.087,-2.38L-309.643,-2.59L-309.222,-2.842L-308.828,-3.135L-308.464,-3.464L-308.135,-3.828L-307.936,-4.096L-307.842,-4.222L-307.59,-4.643L-307.38,-5.087L-307.215,-5.549L-307.096,-6.025L-307.024,-6.511L-307,-7.001L-307.024,-7.491L-307.096,-7.977L-307.215,-8.453L-307.38,-8.915L-307.59,-9.358L-307.842,-9.779L-308.135,-10.174L-308.464,-10.537L-308.828,-10.867L-309.222,-11.159L-309.643,-11.412L-310.087,-11.621L-310.549,-11.787L-311.025,-11.906L-311.51,-11.978L-312,-12.002L-312.491,-11.978L-312.976,-11.906L-313.452,-11.787L-313.914,-11.621L-314.358,-11.412L-314.779,-11.159L-315.173,-10.867L-315.392,-10.668L-315.536,-10.537L-315.866,-10.174L-316.158,-9.779L-316.411,-9.358L-316.62,-8.915L-316.786,-8.453L-316.905,-7.977L-316.977,-7.491L-317.001,-7.001L-316.977,-6.511L-316.905,-6.025L-316.786,-5.549L-316.62,-5.087L-316.411,-4.643L-316.158,-4.222L-316.065,-4.096L-315.866,-3.828L-315.536,-3.464L-315.173,-3.135L-314.779,-2.842L-314.358,-2.59L-313.914,-2.38L-313.452,-2.215L-312.976,-2.096M-311.476,2.511L-311.5,3.002L-311.476,3.492L-311.404,3.977L-311.296,4.409L-311.285,4.453L-311.147,4.84L-311.12,4.916L-310.91,5.359L-310.657,5.78L-310.365,6.174L-310.036,6.538L-309.672,6.868L-309.278,7.16L-308.857,7.412L-308.413,7.622L-307.951,7.788L-307.475,7.907L-306.99,7.979L-306.499,8.003L-306.009,7.979L-305.524,7.907L-305.048,7.788L-304.586,7.622L-304.142,7.412L-303.721,7.16L-303.327,6.868L-302.963,6.538L-302.634,6.174L-302.342,5.78L-302.089,5.359L-301.879,4.916L-301.714,4.453L-301.625,4.096L-301.595,3.977L-301.523,3.492L-301.499,3.002L-301.523,2.511L-301.595,2.026L-301.714,1.55L-301.879,1.088L-302.089,0.644L-302.342,0.223L-302.507,0L-302.634,-0.171L-302.963,-0.535L-303.327,-0.864L-303.721,-1.157L-304.142,-1.409L-304.586,-1.619L-305.048,-1.784L-305.524,-1.903L-306.009,-1.975L-306.499,-2L-306.99,-1.975L-307.475,-1.903L-307.951,-1.784L-308.413,-1.619L-308.857,-1.409L-309.278,-1.157L-309.672,-0.864L-310.036,-0.535L-310.365,-0.171L-310.657,0.223L-310.91,0.644L-311.12,1.088L-311.285,1.55L-311.296,1.594L-311.404,2.026L-311.476,2.511M-303.583,-2.726L-303.356,-2.59L-303.104,-2.471L-302.912,-2.38L-302.45,-2.215L-301.974,-2.096L-301.489,-2.024L-300.999,-2L-300.508,-2.024L-300.023,-2.096L-299.547,-2.215L-299.085,-2.38L-298.641,-2.59L-298.22,-2.842L-297.826,-3.135L-297.463,-3.464L-297.133,-3.828L-296.934,-4.096L-296.841,-4.222L-296.588,-4.643L-296.379,-5.087L-296.213,-5.549L-296.094,-6.025L-296.022,-6.511L-295.998,-7.001L-296.022,-7.491L-296.094,-7.977L-296.148,-8.192L-296.213,-8.453L-296.379,-8.915L-296.588,-9.358L-296.724,-9.585L-296.841,-9.779L-297.133,-10.174L-297.463,-10.537L-297.826,-10.867L-298.22,-11.159L-298.641,-11.412L-299.085,-11.621L-299.547,-11.787L-300.023,-11.906L-300.508,-11.978L-300.999,-12.002L-301.489,-11.978L-301.974,-11.906L-302.45,-11.787L-302.912,-11.621L-303.104,-11.531L-303.356,-11.412L-303.777,-11.159L-304.171,-10.867L-304.535,-10.537L-304.864,-10.174L-305.157,-9.779L-305.409,-9.358L-305.619,-8.915L-305.784,-8.453L-305.849,-8.192L-305.903,-7.977L-305.975,-7.491L-305.999,-7.001L-305.975,-6.511L-305.903,-6.025L-305.784,-5.549L-305.619,-5.087L-305.409,-4.643L-305.157,-4.222L-305.063,-4.096L-304.864,-3.828L-304.535,-3.464L-304.171,-3.135L-303.777,-2.842L-303.583,-2.726Z" style="fill:none;fill-rule:nonzero;stroke:rgb(255,0,0);stroke-width:0.35px;"/>
    </g>
</svg>
