<?xml version="1.0" encoding="UTF-8" standalone="no"?>
<!DOCTYPE svg PUBLIC "-//W3C//DTD SVG 1.1//EN" "http://www.w3.org/Graphics/SVG/1.1/DTD/svg11.dtd">
<svg width="100%" height="100%" viewBox="0 0 130 55" version="1.1" xmlns="http://www.w3.org/2000/svg" xmlns:xlink="http://www.w3.org/1999/xlink" xml:space="preserve" xmlns:serif="http://www.serif.com/" style="fill-rule:evenodd;clip-rule:evenodd;">
    <g transform="matrix(2.83465,0,0,2.83465,791.831,22.5326)">
        <path d="M-258.775,-6.837L-256.56,-6.949L-254.345,-6.837L-252.152,-6.503L-250,-5.95L-247.913,-5.184L-245.908,-4.211L-244.006,-3.041L-242.225,-1.685L-240.582,-0.156L-240.444,0L-239.092,1.53L-237.771,3.358L-236.631,5.31L-235.683,7.367L-234.936,9.51L-234.78,10.15L-278.34,10.15L-278.184,9.51L-277.437,7.367L-276.489,5.31L-275.349,3.358L-274.028,1.53L-272.676,0L-272.538,-0.156L-270.895,-1.685L-269.114,-3.041L-267.212,-4.211L-265.208,-5.184L-263.12,-5.95L-262.144,-6.201L-260.968,-6.503L-258.775,-6.837M-259.563,-5.364L-259.563,3.641L-253.558,3.641L-253.558,-5.364L-259.563,-5.364Z" style="fill:none;fill-rule:nonzero;stroke:rgb(255,0,0);stroke-width:0.35px;"/>
    </g>
</svg>
