999
"DXF R12 Output" (www.mydxf.blogspot.com)
 0 
SECTION
 2 
HEADER
 9 
$ACADVER
 1 
AC1009
 9 
$EXTMIN
 10 
 0 
 20 
 0 
 9 
$EXTMAX
 10 
 8.5 
 20 
 11 
 0 
ENDSEC
 0 
SECTION
 2 
ENTITIES
0
POLYLINE
8
Layer 1
62
10
70
0
10
0.000000
20
0.000000
66
1
0
VERTEX
8
Layer 1
10
34.736708
20
33.910430
70
0
0
VERTEX
8
Layer 1
10
38.249713
20
30.396675
70
0
0
VERTEX
8
Layer 1
10
38.249713
20
0.910386
70
0
0
VERTEX
8
Layer 1
10
0.749663
20
0.910386
70
0
0
VERTEX
8
Layer 1
10
0.749663
20
30.396675
70
0
0
VERTEX
8
Layer 1
10
4.262668
20
33.910430
70
0
0
VERTEX
8
Layer 1
10
34.736708
20
33.910430
70
0
0
SEQEND
8
Layer 1
0
POLYLINE
8
Layer 1
62
10
70
0
10
0.000000
20
0.000000
66
1
0
VERTEX
8
Layer 1
10
13.605430
20
5.851393
70
0
0
VERTEX
8
Layer 1
10
13.938431
20
5.693892
70
0
0
VERTEX
8
Layer 1
10
14.284931
20
5.569392
70
0
0
VERTEX
8
Layer 1
10
14.641932
20
5.480142
70
0
0
VERTEX
8
Layer 1
10
15.006432
20
5.426142
70
0
0
VERTEX
8
Layer 1
10
15.373932
20
5.408142
70
0
0
VERTEX
8
Layer 1
10
15.741433
20
5.426142
70
0
0
VERTEX
8
Layer 1
10
16.105183
20
5.480142
70
0
0
VERTEX
8
Layer 1
10
16.462184
20
5.569392
70
0
0
VERTEX
8
Layer 1
10
16.808684
20
5.693892
70
0
0
VERTEX
8
Layer 1
10
16.955685
20
5.763642
70
0
0
VERTEX
8
Layer 1
10
17.141685
20
5.851393
70
0
0
VERTEX
8
Layer 1
10
17.457435
20
6.040393
70
0
0
VERTEX
8
Layer 1
10
17.752936
20
6.259393
70
0
0
VERTEX
8
Layer 1
10
18.025936
20
6.506893
70
0
0
VERTEX
8
Layer 1
10
18.272686
20
6.779894
70
0
0
VERTEX
8
Layer 1
10
18.492437
20
7.075394
70
0
0
VERTEX
8
Layer 1
10
18.681437
20
7.391145
70
0
0
VERTEX
8
Layer 1
10
18.838937
20
7.723395
70
0
0
VERTEX
8
Layer 1
10
18.962687
20
8.070646
70
0
0
VERTEX
8
Layer 1
10
19.051937
20
8.427646
70
0
0
VERTEX
8
Layer 1
10
19.105937
20
8.791397
70
0
0
VERTEX
8
Layer 1
10
19.124687
20
9.158897
70
0
0
VERTEX
8
Layer 1
10
19.105937
20
9.527147
70
0
0
VERTEX
8
Layer 1
10
19.051937
20
9.890898
70
0
0
VERTEX
8
Layer 1
10
18.962687
20
10.247898
70
0
0
VERTEX
8
Layer 1
10
18.838937
20
10.594399
70
0
0
VERTEX
8
Layer 1
10
18.681437
20
10.927399
70
0
0
VERTEX
8
Layer 1
10
18.492437
20
11.243150
70
0
0
VERTEX
8
Layer 1
10
18.367936
20
11.410400
70
0
0
VERTEX
8
Layer 1
10
18.272686
20
11.538650
70
0
0
VERTEX
8
Layer 1
10
18.025936
20
11.811651
70
0
0
VERTEX
8
Layer 1
10
17.752936
20
12.058401
70
0
0
VERTEX
8
Layer 1
10
17.457435
20
12.278151
70
0
0
VERTEX
8
Layer 1
10
17.141685
20
12.467151
70
0
0
VERTEX
8
Layer 1
10
16.808684
20
12.624652
70
0
0
VERTEX
8
Layer 1
10
16.462184
20
12.748402
70
0
0
VERTEX
8
Layer 1
10
16.105183
20
12.837652
70
0
0
VERTEX
8
Layer 1
10
15.741433
20
12.891652
70
0
0
VERTEX
8
Layer 1
10
15.373932
20
12.910402
70
0
0
VERTEX
8
Layer 1
10
15.006432
20
12.891652
70
0
0
VERTEX
8
Layer 1
10
14.641932
20
12.837652
70
0
0
VERTEX
8
Layer 1
10
14.284931
20
12.748402
70
0
0
VERTEX
8
Layer 1
10
13.938431
20
12.624652
70
0
0
VERTEX
8
Layer 1
10
13.605430
20
12.467151
70
0
0
VERTEX
8
Layer 1
10
13.290430
20
12.278151
70
0
0
VERTEX
8
Layer 1
10
12.994179
20
12.058401
70
0
0
VERTEX
8
Layer 1
10
12.721929
20
11.811651
70
0
0
VERTEX
8
Layer 1
10
12.474429
20
11.538650
70
0
0
VERTEX
8
Layer 1
10
12.379179
20
11.410400
70
0
0
VERTEX
8
Layer 1
10
12.255428
20
11.243150
70
0
0
VERTEX
8
Layer 1
10
12.065678
20
10.927399
70
0
0
VERTEX
8
Layer 1
10
11.908928
20
10.594399
70
0
0
VERTEX
8
Layer 1
10
11.784428
20
10.247898
70
0
0
VERTEX
8
Layer 1
10
11.695178
20
9.890898
70
0
0
VERTEX
8
Layer 1
10
11.641178
20
9.527147
70
0
0
VERTEX
8
Layer 1
10
11.623177
20
9.158897
70
0
0
VERTEX
8
Layer 1
10
11.641178
20
8.791397
70
0
0
VERTEX
8
Layer 1
10
11.695178
20
8.427646
70
0
0
VERTEX
8
Layer 1
10
11.784428
20
8.070646
70
0
0
VERTEX
8
Layer 1
10
11.908928
20
7.723395
70
0
0
VERTEX
8
Layer 1
10
12.065678
20
7.391145
70
0
0
VERTEX
8
Layer 1
10
12.255428
20
7.075394
70
0
0
VERTEX
8
Layer 1
10
12.474429
20
6.779894
70
0
0
VERTEX
8
Layer 1
10
12.721929
20
6.506893
70
0
0
VERTEX
8
Layer 1
10
12.994179
20
6.259393
70
0
0
VERTEX
8
Layer 1
10
13.290430
20
6.040393
70
0
0
VERTEX
8
Layer 1
10
13.605430
20
5.851393
70
0
0
SEQEND
8
Layer 1
0
POLYLINE
8
Layer 1
62
10
70
0
10
0.000000
20
0.000000
66
1
0
VERTEX
8
Layer 1
10
13.627180
20
13.761653
70
0
0
VERTEX
8
Layer 1
10
13.900181
20
14.008403
70
0
0
VERTEX
8
Layer 1
10
14.147681
20
14.281404
70
0
0
VERTEX
8
Layer 1
10
14.366681
20
14.576904
70
0
0
VERTEX
8
Layer 1
10
14.555681
20
14.892655
70
0
0
VERTEX
8
Layer 1
10
14.713182
20
15.225655
70
0
0
VERTEX
8
Layer 1
10
14.836932
20
15.572156
70
0
0
VERTEX
8
Layer 1
10
14.926932
20
15.929156
70
0
0
VERTEX
8
Layer 1
10
14.980932
20
16.293657
70
0
0
VERTEX
8
Layer 1
10
14.998932
20
16.661157
70
0
0
VERTEX
8
Layer 1
10
14.980932
20
17.028657
70
0
0
VERTEX
8
Layer 1
10
14.926932
20
17.393158
70
0
0
VERTEX
8
Layer 1
10
14.886432
20
17.554408
70
0
0
VERTEX
8
Layer 1
10
14.836932
20
17.750158
70
0
0
VERTEX
8
Layer 1
10
14.713182
20
18.096659
70
0
0
VERTEX
8
Layer 1
10
14.555681
20
18.428909
70
0
0
VERTEX
8
Layer 1
10
14.366681
20
18.744660
70
0
0
VERTEX
8
Layer 1
10
14.147681
20
19.040910
70
0
0
VERTEX
8
Layer 1
10
13.900181
20
19.313161
70
0
0
VERTEX
8
Layer 1
10
13.627180
20
19.560661
70
0
0
VERTEX
8
Layer 1
10
13.331680
20
19.779661
70
0
0
VERTEX
8
Layer 1
10
13.015929
20
19.969411
70
0
0
VERTEX
8
Layer 1
10
12.683679
20
20.126162
70
0
0
VERTEX
8
Layer 1
10
12.337178
20
20.250662
70
0
0
VERTEX
8
Layer 1
10
11.980178
20
20.339912
70
0
0
VERTEX
8
Layer 1
10
11.615677
20
20.393912
70
0
0
VERTEX
8
Layer 1
10
11.248177
20
20.411912
70
0
0
VERTEX
8
Layer 1
10
10.880677
20
20.393912
70
0
0
VERTEX
8
Layer 1
10
10.516176
20
20.339912
70
0
0
VERTEX
8
Layer 1
10
10.159176
20
20.250662
70
0
0
VERTEX
8
Layer 1
10
9.812675
20
20.126162
70
0
0
VERTEX
8
Layer 1
10
9.480425
20
19.969411
70
0
0
VERTEX
8
Layer 1
10
9.164674
20
19.779661
70
0
0
VERTEX
8
Layer 1
10
8.868424
20
19.560661
70
0
0
VERTEX
8
Layer 1
10
8.596173
20
19.313161
70
0
0
VERTEX
8
Layer 1
10
8.348673
20
19.040910
70
0
0
VERTEX
8
Layer 1
10
8.129673
20
18.744660
70
0
0
VERTEX
8
Layer 1
10
7.940673
20
18.428909
70
0
0
VERTEX
8
Layer 1
10
7.783172
20
18.096659
70
0
0
VERTEX
8
Layer 1
10
7.739672
20
17.975909
70
0
0
VERTEX
8
Layer 1
10
7.658672
20
17.750158
70
0
0
VERTEX
8
Layer 1
10
7.609922
20
17.554408
70
0
0
VERTEX
8
Layer 1
10
7.569422
20
17.393158
70
0
0
VERTEX
8
Layer 1
10
7.515422
20
17.028657
70
0
0
VERTEX
8
Layer 1
10
7.497422
20
16.661157
70
0
0
VERTEX
8
Layer 1
10
7.511672
20
16.368657
70
0
0
VERTEX
8
Layer 1
10
7.515422
20
16.293657
70
0
0
VERTEX
8
Layer 1
10
7.569422
20
15.929156
70
0
0
VERTEX
8
Layer 1
10
7.658672
20
15.572156
70
0
0
VERTEX
8
Layer 1
10
7.739672
20
15.346405
70
0
0
VERTEX
8
Layer 1
10
7.783172
20
15.225655
70
0
0
VERTEX
8
Layer 1
10
7.940673
20
14.892655
70
0
0
VERTEX
8
Layer 1
10
8.129673
20
14.576904
70
0
0
VERTEX
8
Layer 1
10
8.348673
20
14.281404
70
0
0
VERTEX
8
Layer 1
10
8.596173
20
14.008403
70
0
0
VERTEX
8
Layer 1
10
8.868424
20
13.761653
70
0
0
VERTEX
8
Layer 1
10
9.164674
20
13.541903
70
0
0
VERTEX
8
Layer 1
10
9.480425
20
13.352903
70
0
0
VERTEX
8
Layer 1
10
9.812675
20
13.195402
70
0
0
VERTEX
8
Layer 1
10
10.159176
20
13.071652
70
0
0
VERTEX
8
Layer 1
10
10.516176
20
12.982402
70
0
0
VERTEX
8
Layer 1
10
10.880677
20
12.928402
70
0
0
VERTEX
8
Layer 1
10
11.248177
20
12.910402
70
0
0
VERTEX
8
Layer 1
10
11.615677
20
12.928402
70
0
0
VERTEX
8
Layer 1
10
11.980178
20
12.982402
70
0
0
VERTEX
8
Layer 1
10
12.337178
20
13.071652
70
0
0
VERTEX
8
Layer 1
10
12.683679
20
13.195402
70
0
0
VERTEX
8
Layer 1
10
13.015929
20
13.352903
70
0
0
VERTEX
8
Layer 1
10
13.331680
20
13.541903
70
0
0
VERTEX
8
Layer 1
10
13.627180
20
13.761653
70
0
0
SEQEND
8
Layer 1
0
POLYLINE
8
Layer 1
62
10
70
0
10
0.000000
20
0.000000
66
1
0
VERTEX
8
Layer 1
10
18.767687
20
12.982402
70
0
0
VERTEX
8
Layer 1
10
19.131438
20
12.928402
70
0
0
VERTEX
8
Layer 1
10
19.499688
20
12.910402
70
0
0
VERTEX
8
Layer 1
10
19.867188
20
12.928402
70
0
0
VERTEX
8
Layer 1
10
20.230939
20
12.982402
70
0
0
VERTEX
8
Layer 1
10
20.587939
20
13.071652
70
0
0
VERTEX
8
Layer 1
10
20.934440
20
13.195402
70
0
0
VERTEX
8
Layer 1
10
21.267440
20
13.352903
70
0
0
VERTEX
8
Layer 1
10
21.583191
20
13.541903
70
0
0
VERTEX
8
Layer 1
10
21.878691
20
13.761653
70
0
0
VERTEX
8
Layer 1
10
22.151692
20
14.008403
70
0
0
VERTEX
8
Layer 1
10
22.398442
20
14.281404
70
0
0
VERTEX
8
Layer 1
10
22.547692
20
14.482404
70
0
0
VERTEX
8
Layer 1
10
22.618192
20
14.576904
70
0
0
VERTEX
8
Layer 1
10
22.807192
20
14.892655
70
0
0
VERTEX
8
Layer 1
10
22.964693
20
15.225655
70
0
0
VERTEX
8
Layer 1
10
23.088443
20
15.572156
70
0
0
VERTEX
8
Layer 1
10
23.177693
20
15.929156
70
0
0
VERTEX
8
Layer 1
10
23.231693
20
16.293657
70
0
0
VERTEX
8
Layer 1
10
23.249693
20
16.661157
70
0
0
VERTEX
8
Layer 1
10
23.231693
20
17.028657
70
0
0
VERTEX
8
Layer 1
10
23.177693
20
17.393158
70
0
0
VERTEX
8
Layer 1
10
23.088443
20
17.750158
70
0
0
VERTEX
8
Layer 1
10
22.964693
20
18.096659
70
0
0
VERTEX
8
Layer 1
10
22.807192
20
18.428909
70
0
0
VERTEX
8
Layer 1
10
22.618192
20
18.744660
70
0
0
VERTEX
8
Layer 1
10
22.398442
20
19.040910
70
0
0
VERTEX
8
Layer 1
10
22.151692
20
19.313161
70
0
0
VERTEX
8
Layer 1
10
21.878691
20
19.560661
70
0
0
VERTEX
8
Layer 1
10
21.583191
20
19.779661
70
0
0
VERTEX
8
Layer 1
10
21.267440
20
19.969411
70
0
0
VERTEX
8
Layer 1
10
20.934440
20
20.126162
70
0
0
VERTEX
8
Layer 1
10
20.587939
20
20.250662
70
0
0
VERTEX
8
Layer 1
10
20.230939
20
20.339912
70
0
0
VERTEX
8
Layer 1
10
19.867188
20
20.393912
70
0
0
VERTEX
8
Layer 1
10
19.499688
20
20.411912
70
0
0
VERTEX
8
Layer 1
10
19.131438
20
20.393912
70
0
0
VERTEX
8
Layer 1
10
18.767687
20
20.339912
70
0
0
VERTEX
8
Layer 1
10
18.410687
20
20.250662
70
0
0
VERTEX
8
Layer 1
10
18.064186
20
20.126162
70
0
0
VERTEX
8
Layer 1
10
17.731186
20
19.969411
70
0
0
VERTEX
8
Layer 1
10
17.415435
20
19.779661
70
0
0
VERTEX
8
Layer 1
10
17.119935
20
19.560661
70
0
0
VERTEX
8
Layer 1
10
16.955685
20
19.411411
70
0
0
VERTEX
8
Layer 1
10
16.847684
20
19.313161
70
0
0
VERTEX
8
Layer 1
10
16.600184
20
19.040910
70
0
0
VERTEX
8
Layer 1
10
16.381184
20
18.744660
70
0
0
VERTEX
8
Layer 1
10
16.191434
20
18.428909
70
0
0
VERTEX
8
Layer 1
10
16.034683
20
18.096659
70
0
0
VERTEX
8
Layer 1
10
15.910183
20
17.750158
70
0
0
VERTEX
8
Layer 1
10
15.820933
20
17.393158
70
0
0
VERTEX
8
Layer 1
10
15.766933
20
17.028657
70
0
0
VERTEX
8
Layer 1
10
15.748933
20
16.661157
70
0
0
VERTEX
8
Layer 1
10
15.766933
20
16.293657
70
0
0
VERTEX
8
Layer 1
10
15.820933
20
15.929156
70
0
0
VERTEX
8
Layer 1
10
15.910183
20
15.572156
70
0
0
VERTEX
8
Layer 1
10
16.034683
20
15.225655
70
0
0
VERTEX
8
Layer 1
10
16.191434
20
14.892655
70
0
0
VERTEX
8
Layer 1
10
16.381184
20
14.576904
70
0
0
VERTEX
8
Layer 1
10
16.450934
20
14.482404
70
0
0
VERTEX
8
Layer 1
10
16.600184
20
14.281404
70
0
0
VERTEX
8
Layer 1
10
16.847684
20
14.008403
70
0
0
VERTEX
8
Layer 1
10
17.119935
20
13.761653
70
0
0
VERTEX
8
Layer 1
10
17.415435
20
13.541903
70
0
0
VERTEX
8
Layer 1
10
17.731186
20
13.352903
70
0
0
VERTEX
8
Layer 1
10
18.064186
20
13.195402
70
0
0
VERTEX
8
Layer 1
10
18.410687
20
13.071652
70
0
0
VERTEX
8
Layer 1
10
18.767687
20
12.982402
70
0
0
SEQEND
8
Layer 1
0
POLYLINE
8
Layer 1
62
10
70
0
10
0.000000
20
0.000000
66
1
0
VERTEX
8
Layer 1
10
19.892689
20
9.527147
70
0
0
VERTEX
8
Layer 1
10
19.874688
20
9.158897
70
0
0
VERTEX
8
Layer 1
10
19.892689
20
8.791397
70
0
0
VERTEX
8
Layer 1
10
19.946689
20
8.427646
70
0
0
VERTEX
8
Layer 1
10
20.027689
20
8.103646
70
0
0
VERTEX
8
Layer 1
10
20.035939
20
8.070646
70
0
0
VERTEX
8
Layer 1
10
20.139439
20
7.780395
70
0
0
VERTEX
8
Layer 1
10
20.159689
20
7.723395
70
0
0
VERTEX
8
Layer 1
10
20.317189
20
7.391145
70
0
0
VERTEX
8
Layer 1
10
20.506939
20
7.075394
70
0
0
VERTEX
8
Layer 1
10
20.725940
20
6.779894
70
0
0
VERTEX
8
Layer 1
10
20.972690
20
6.506893
70
0
0
VERTEX
8
Layer 1
10
21.245690
20
6.259393
70
0
0
VERTEX
8
Layer 1
10
21.541191
20
6.040393
70
0
0
VERTEX
8
Layer 1
10
21.856941
20
5.851393
70
0
0
VERTEX
8
Layer 1
10
22.189942
20
5.693892
70
0
0
VERTEX
8
Layer 1
10
22.536442
20
5.569392
70
0
0
VERTEX
8
Layer 1
10
22.893443
20
5.480142
70
0
0
VERTEX
8
Layer 1
10
23.257193
20
5.426142
70
0
0
VERTEX
8
Layer 1
10
23.625444
20
5.408142
70
0
0
VERTEX
8
Layer 1
10
23.992944
20
5.426142
70
0
0
VERTEX
8
Layer 1
10
24.356694
20
5.480142
70
0
0
VERTEX
8
Layer 1
10
24.713695
20
5.569392
70
0
0
VERTEX
8
Layer 1
10
25.060195
20
5.693892
70
0
0
VERTEX
8
Layer 1
10
25.393196
20
5.851393
70
0
0
VERTEX
8
Layer 1
10
25.708946
20
6.040393
70
0
0
VERTEX
8
Layer 1
10
26.004447
20
6.259393
70
0
0
VERTEX
8
Layer 1
10
26.277447
20
6.506893
70
0
0
VERTEX
8
Layer 1
10
26.524197
20
6.779894
70
0
0
VERTEX
8
Layer 1
10
26.743198
20
7.075394
70
0
0
VERTEX
8
Layer 1
10
26.932948
20
7.391145
70
0
0
VERTEX
8
Layer 1
10
27.090448
20
7.723395
70
0
0
VERTEX
8
Layer 1
10
27.214198
20
8.070646
70
0
0
VERTEX
8
Layer 1
10
27.280948
20
8.338396
70
0
0
VERTEX
8
Layer 1
10
27.303448
20
8.427646
70
0
0
VERTEX
8
Layer 1
10
27.357448
20
8.791397
70
0
0
VERTEX
8
Layer 1
10
27.375449
20
9.158897
70
0
0
VERTEX
8
Layer 1
10
27.357448
20
9.527147
70
0
0
VERTEX
8
Layer 1
10
27.303448
20
9.890898
70
0
0
VERTEX
8
Layer 1
10
27.214198
20
10.247898
70
0
0
VERTEX
8
Layer 1
10
27.090448
20
10.594399
70
0
0
VERTEX
8
Layer 1
10
26.932948
20
10.927399
70
0
0
VERTEX
8
Layer 1
10
26.743198
20
11.243150
70
0
0
VERTEX
8
Layer 1
10
26.619447
20
11.410400
70
0
0
VERTEX
8
Layer 1
10
26.524197
20
11.538650
70
0
0
VERTEX
8
Layer 1
10
26.277447
20
11.811651
70
0
0
VERTEX
8
Layer 1
10
26.004447
20
12.058401
70
0
0
VERTEX
8
Layer 1
10
25.708946
20
12.278151
70
0
0
VERTEX
8
Layer 1
10
25.393196
20
12.467151
70
0
0
VERTEX
8
Layer 1
10
25.060195
20
12.624652
70
0
0
VERTEX
8
Layer 1
10
24.713695
20
12.748402
70
0
0
VERTEX
8
Layer 1
10
24.356694
20
12.837652
70
0
0
VERTEX
8
Layer 1
10
23.992944
20
12.891652
70
0
0
VERTEX
8
Layer 1
10
23.625444
20
12.910402
70
0
0
VERTEX
8
Layer 1
10
23.257193
20
12.891652
70
0
0
VERTEX
8
Layer 1
10
22.893443
20
12.837652
70
0
0
VERTEX
8
Layer 1
10
22.536442
20
12.748402
70
0
0
VERTEX
8
Layer 1
10
22.189942
20
12.624652
70
0
0
VERTEX
8
Layer 1
10
21.856941
20
12.467151
70
0
0
VERTEX
8
Layer 1
10
21.541191
20
12.278151
70
0
0
VERTEX
8
Layer 1
10
21.245690
20
12.058401
70
0
0
VERTEX
8
Layer 1
10
20.972690
20
11.811651
70
0
0
VERTEX
8
Layer 1
10
20.725940
20
11.538650
70
0
0
VERTEX
8
Layer 1
10
20.506939
20
11.243150
70
0
0
VERTEX
8
Layer 1
10
20.317189
20
10.927399
70
0
0
VERTEX
8
Layer 1
10
20.159689
20
10.594399
70
0
0
VERTEX
8
Layer 1
10
20.035939
20
10.247898
70
0
0
VERTEX
8
Layer 1
10
20.027689
20
10.214898
70
0
0
VERTEX
8
Layer 1
10
19.946689
20
9.890898
70
0
0
VERTEX
8
Layer 1
10
19.892689
20
9.527147
70
0
0
SEQEND
8
Layer 1
0
POLYLINE
8
Layer 1
62
10
70
1
10
0.000000
20
0.000000
66
1
0
VERTEX
8
Layer 1
10
25.812446
20
13.454903
70
0
0
VERTEX
8
Layer 1
10
25.982697
20
13.352903
70
0
0
VERTEX
8
Layer 1
10
26.171697
20
13.263652
70
0
0
VERTEX
8
Layer 1
10
26.315697
20
13.195402
70
0
0
VERTEX
8
Layer 1
10
26.662198
20
13.071652
70
0
0
VERTEX
8
Layer 1
10
27.019198
20
12.982402
70
0
0
VERTEX
8
Layer 1
10
27.382949
20
12.928402
70
0
0
VERTEX
8
Layer 1
10
27.750449
20
12.910402
70
0
0
VERTEX
8
Layer 1
10
28.118699
20
12.928402
70
0
0
VERTEX
8
Layer 1
10
28.482450
20
12.982402
70
0
0
VERTEX
8
Layer 1
10
28.839450
20
13.071652
70
0
0
VERTEX
8
Layer 1
10
29.185951
20
13.195402
70
0
0
VERTEX
8
Layer 1
10
29.518951
20
13.352903
70
0
0
VERTEX
8
Layer 1
10
29.834702
20
13.541903
70
0
0
VERTEX
8
Layer 1
10
30.130202
20
13.761653
70
0
0
VERTEX
8
Layer 1
10
30.402453
20
14.008403
70
0
0
VERTEX
8
Layer 1
10
30.649953
20
14.281404
70
0
0
VERTEX
8
Layer 1
10
30.799203
20
14.482404
70
0
0
VERTEX
8
Layer 1
10
30.868953
20
14.576904
70
0
0
VERTEX
8
Layer 1
10
31.058703
20
14.892655
70
0
0
VERTEX
8
Layer 1
10
31.215454
20
15.225655
70
0
0
VERTEX
8
Layer 1
10
31.339954
20
15.572156
70
0
0
VERTEX
8
Layer 1
10
31.429204
20
15.929156
70
0
0
VERTEX
8
Layer 1
10
31.483204
20
16.293657
70
0
0
VERTEX
8
Layer 1
10
31.501204
20
16.661157
70
0
0
VERTEX
8
Layer 1
10
31.483204
20
17.028657
70
0
0
VERTEX
8
Layer 1
10
31.429204
20
17.393158
70
0
0
VERTEX
8
Layer 1
10
31.388704
20
17.554408
70
0
0
VERTEX
8
Layer 1
10
31.339954
20
17.750158
70
0
0
VERTEX
8
Layer 1
10
31.215454
20
18.096659
70
0
0
VERTEX
8
Layer 1
10
31.058703
20
18.428909
70
0
0
VERTEX
8
Layer 1
10
30.956703
20
18.599160
70
0
0
VERTEX
8
Layer 1
10
30.868953
20
18.744660
70
0
0
VERTEX
8
Layer 1
10
30.649953
20
19.040910
70
0
0
VERTEX
8
Layer 1
10
30.402453
20
19.313161
70
0
0
VERTEX
8
Layer 1
10
30.130202
20
19.560661
70
0
0
VERTEX
8
Layer 1
10
29.834702
20
19.779661
70
0
0
VERTEX
8
Layer 1
10
29.518951
20
19.969411
70
0
0
VERTEX
8
Layer 1
10
29.185951
20
20.126162
70
0
0
VERTEX
8
Layer 1
10
28.839450
20
20.250662
70
0
0
VERTEX
8
Layer 1
10
28.482450
20
20.339912
70
0
0
VERTEX
8
Layer 1
10
28.118699
20
20.393912
70
0
0
VERTEX
8
Layer 1
10
27.750449
20
20.411912
70
0
0
VERTEX
8
Layer 1
10
27.382949
20
20.393912
70
0
0
VERTEX
8
Layer 1
10
27.019198
20
20.339912
70
0
0
VERTEX
8
Layer 1
10
26.662198
20
20.250662
70
0
0
VERTEX
8
Layer 1
10
26.315697
20
20.126162
70
0
0
VERTEX
8
Layer 1
10
26.171697
20
20.058662
70
0
0
VERTEX
8
Layer 1
10
25.982697
20
19.969411
70
0
0
VERTEX
8
Layer 1
10
25.666946
20
19.779661
70
0
0
VERTEX
8
Layer 1
10
25.371446
20
19.560661
70
0
0
VERTEX
8
Layer 1
10
25.098445
20
19.313161
70
0
0
VERTEX
8
Layer 1
10
24.851695
20
19.040910
70
0
0
VERTEX
8
Layer 1
10
24.631945
20
18.744660
70
0
0
VERTEX
8
Layer 1
10
24.442945
20
18.428909
70
0
0
VERTEX
8
Layer 1
10
24.285444
20
18.096659
70
0
0
VERTEX
8
Layer 1
10
24.161694
20
17.750158
70
0
0
VERTEX
8
Layer 1
10
24.112944
20
17.554408
70
0
0
VERTEX
8
Layer 1
10
24.072444
20
17.393158
70
0
0
VERTEX
8
Layer 1
10
24.018444
20
17.028657
70
0
0
VERTEX
8
Layer 1
10
24.000444
20
16.661157
70
0
0
VERTEX
8
Layer 1
10
24.018444
20
16.293657
70
0
0
VERTEX
8
Layer 1
10
24.072444
20
15.929156
70
0
0
VERTEX
8
Layer 1
10
24.161694
20
15.572156
70
0
0
VERTEX
8
Layer 1
10
24.285444
20
15.225655
70
0
0
VERTEX
8
Layer 1
10
24.442945
20
14.892655
70
0
0
VERTEX
8
Layer 1
10
24.631945
20
14.576904
70
0
0
VERTEX
8
Layer 1
10
24.702445
20
14.482404
70
0
0
VERTEX
8
Layer 1
10
24.851695
20
14.281404
70
0
0
VERTEX
8
Layer 1
10
25.098445
20
14.008403
70
0
0
VERTEX
8
Layer 1
10
25.371446
20
13.761653
70
0
0
VERTEX
8
Layer 1
10
25.666946
20
13.541903
70
0
0
VERTEX
8
Layer 1
10
25.812446
20
13.454903
70
0
0
VERTEX
8
Layer 1
10
25.812446
20
13.454903
70
0
0
SEQEND
8
Layer 1
 0 
ENDSEC
 0 
EOF